<?xml version="1.0" encoding="UTF-8" standalone="no"?>
<!DOCTYPE svg PUBLIC "-//W3C//DTD SVG 1.1//EN"
 "http://www.w3.org/Graphics/SVG/1.1/DTD/svg11.dtd">
<!-- Generated by graphviz version 2.47.0 (20210316.0004)
 -->
<!-- Title: dependencies Pages: 1 -->
<svg width="576pt" height="211pt"
 viewBox="0.00 0.00 576.00 211.00" xmlns="http://www.w3.org/2000/svg" xmlns:xlink="http://www.w3.org/1999/xlink">
<g id="graph0" class="graph" transform="scale(1 1) rotate(0) translate(4 207)">
<title>dependencies</title>
<polygon fill="white" stroke="transparent" points="-4,4 -4,-207 572,-207 572,4 -4,4"/>
<text text-anchor="start" x="263.01" y="-42.4" font-family="Times-12" font-weight="bold" font-size="14.00">Legend</text>
<polygon fill="#ffffb3" stroke="transparent" points="50,-10 50,-30 70,-30 70,-10 50,-10"/>
<text text-anchor="start" x="73.63" y="-15.4" font-family="Times-12" font-size="14.00"> &#160;Declarations</text>
<polygon fill="#8dd3c7" stroke="transparent" points="163,-10 163,-30 183,-30 183,-10 163,-10"/>
<text text-anchor="start" x="186.73" y="-15.4" font-family="Times-12" font-size="14.00"> &#160;Module</text>
<polygon fill="#80b1d3" stroke="transparent" points="249,-10 249,-30 269,-30 269,-10 249,-10"/>
<text text-anchor="start" x="272.78" y="-15.4" font-family="Times-12" font-size="14.00"> &#160;Bootstrap</text>
<polygon fill="#fdb462" stroke="transparent" points="346,-10 346,-30 366,-30 366,-10 346,-10"/>
<text text-anchor="start" x="369.67" y="-15.4" font-family="Times-12" font-size="14.00"> &#160;Providers</text>
<polygon fill="#fb8072" stroke="transparent" points="442,-10 442,-30 462,-30 462,-10 442,-10"/>
<text text-anchor="start" x="465.73" y="-15.4" font-family="Times-12" font-size="14.00"> &#160;Exports</text>
<g id="clust1" class="cluster">
<title>cluster_CategoriesModule</title>
<polygon fill="none" stroke="black" stroke-dasharray="1,5" points="8,-70 8,-195 560,-195 560,-70 8,-70"/>
</g>
<g id="clust2" class="cluster">
<title>cluster_CategoriesModule_declarations</title>
<polygon fill="none" stroke="black" points="204,-78 204,-130 552,-130 552,-78 204,-78"/>
</g>
<g id="clust5" class="cluster">
<title>cluster_CategoriesModule_imports</title>
<polygon fill="none" stroke="black" points="16,-78 16,-130 196,-130 196,-78 16,-78"/>
</g>
<!-- ListCategoryComponent -->
<g id="node1" class="node">
<title>ListCategoryComponent</title>
<polygon fill="#ffffb3" stroke="black" points="544.43,-122 389.57,-122 389.57,-86 544.43,-86 544.43,-122"/>
<text text-anchor="middle" x="467" y="-99.8" font-family="Times,serif" font-size="14.00">ListCategoryComponent</text>
</g>
<!-- CategoriesModule -->
<g id="node3" class="node">
<title>CategoriesModule</title>
<polygon fill="#8dd3c7" stroke="black" points="351.92,-187 348.92,-191 327.92,-191 324.92,-187 232.08,-187 232.08,-151 351.92,-151 351.92,-187"/>
<text text-anchor="middle" x="292" y="-164.8" font-family="Times,serif" font-size="14.00">CategoriesModule</text>
</g>
<!-- ListCategoryComponent&#45;&gt;CategoriesModule -->
<g id="edge1" class="edge">
<title>ListCategoryComponent&#45;&gt;CategoriesModule</title>
<path fill="none" stroke="black" d="M467,-122.11C467,-141.34 467,-169 467,-169 467,-169 361.74,-169 361.74,-169"/>
<polygon fill="black" stroke="black" points="361.74,-165.5 351.74,-169 361.74,-172.5 361.74,-165.5"/>
</g>
<!-- SaveCategoryComponent -->
<g id="node2" class="node">
<title>SaveCategoryComponent</title>
<polygon fill="#ffffb3" stroke="black" points="371.86,-122 212.14,-122 212.14,-86 371.86,-86 371.86,-122"/>
<text text-anchor="middle" x="292" y="-99.8" font-family="Times,serif" font-size="14.00">SaveCategoryComponent</text>
</g>
<!-- SaveCategoryComponent&#45;&gt;CategoriesModule -->
<g id="edge2" class="edge">
<title>SaveCategoryComponent&#45;&gt;CategoriesModule</title>
<path fill="none" stroke="black" d="M292,-122.11C292,-122.11 292,-140.99 292,-140.99"/>
<polygon fill="black" stroke="black" points="288.5,-140.99 292,-150.99 295.5,-140.99 288.5,-140.99"/>
</g>
<!-- CategoriesRoutingModule -->
<g id="node4" class="node">
<title>CategoriesRoutingModule</title>
<polygon fill="#8dd3c7" stroke="black" points="188.04,-122 185.04,-126 164.04,-126 161.04,-122 23.96,-122 23.96,-86 188.04,-86 188.04,-122"/>
<text text-anchor="middle" x="106" y="-99.8" font-family="Times,serif" font-size="14.00">CategoriesRoutingModule</text>
</g>
<!-- CategoriesRoutingModule&#45;&gt;CategoriesModule -->
<g id="edge3" class="edge">
<title>CategoriesRoutingModule&#45;&gt;CategoriesModule</title>
<path fill="none" stroke="black" d="M106,-122.11C106,-141.34 106,-169 106,-169 106,-169 222.12,-169 222.12,-169"/>
<polygon fill="black" stroke="black" points="222.12,-172.5 232.12,-169 222.12,-165.5 222.12,-172.5"/>
</g>
</g>
</svg>
