<?xml version="1.0" encoding="UTF-8" standalone="no"?>
<!DOCTYPE svg PUBLIC "-//W3C//DTD SVG 1.1//EN"
 "http://www.w3.org/Graphics/SVG/1.1/DTD/svg11.dtd">
<!-- Generated by graphviz version 2.47.0 (20210316.0004)
 -->
<!-- Title: dependencies Pages: 1 -->
<svg width="664pt" height="211pt"
 viewBox="0.00 0.00 664.00 211.00" xmlns="http://www.w3.org/2000/svg" xmlns:xlink="http://www.w3.org/1999/xlink">
<g id="graph0" class="graph" transform="scale(1 1) rotate(0) translate(4 207)">
<title>dependencies</title>
<polygon fill="white" stroke="transparent" points="-4,4 -4,-207 660,-207 660,4 -4,4"/>
<text text-anchor="start" x="307.01" y="-42.4" font-family="Times-12" font-weight="bold" font-size="14.00">Legend</text>
<polygon fill="#ffffb3" stroke="transparent" points="94,-10 94,-30 114,-30 114,-10 94,-10"/>
<text text-anchor="start" x="117.63" y="-15.4" font-family="Times-12" font-size="14.00"> &#160;Declarations</text>
<polygon fill="#8dd3c7" stroke="transparent" points="207,-10 207,-30 227,-30 227,-10 207,-10"/>
<text text-anchor="start" x="230.73" y="-15.4" font-family="Times-12" font-size="14.00"> &#160;Module</text>
<polygon fill="#80b1d3" stroke="transparent" points="293,-10 293,-30 313,-30 313,-10 293,-10"/>
<text text-anchor="start" x="316.78" y="-15.4" font-family="Times-12" font-size="14.00"> &#160;Bootstrap</text>
<polygon fill="#fdb462" stroke="transparent" points="390,-10 390,-30 410,-30 410,-10 390,-10"/>
<text text-anchor="start" x="413.67" y="-15.4" font-family="Times-12" font-size="14.00"> &#160;Providers</text>
<polygon fill="#fb8072" stroke="transparent" points="486,-10 486,-30 506,-30 506,-10 486,-10"/>
<text text-anchor="start" x="509.73" y="-15.4" font-family="Times-12" font-size="14.00"> &#160;Exports</text>
<g id="clust1" class="cluster">
<title>cluster_TasksModule</title>
<polygon fill="none" stroke="black" stroke-dasharray="1,5" points="8,-70 8,-195 648,-195 648,-70 8,-70"/>
</g>
<g id="clust2" class="cluster">
<title>cluster_TasksModule_declarations</title>
<polygon fill="none" stroke="black" points="178,-78 178,-130 640,-130 640,-78 178,-78"/>
</g>
<g id="clust6" class="cluster">
<title>cluster_TasksModule_imports</title>
<polygon fill="none" stroke="black" points="16,-78 16,-130 170,-130 170,-78 16,-78"/>
</g>
<!-- FinishTaskComponent -->
<g id="node1" class="node">
<title>FinishTaskComponent</title>
<polygon fill="#ffffb3" stroke="black" points="631.55,-122 488.45,-122 488.45,-86 631.55,-86 631.55,-122"/>
<text text-anchor="middle" x="560" y="-99.8" font-family="Times,serif" font-size="14.00">FinishTaskComponent</text>
</g>
<!-- TasksModule -->
<g id="node4" class="node">
<title>TasksModule</title>
<polygon fill="#8dd3c7" stroke="black" points="375.21,-187 372.21,-191 351.21,-191 348.21,-187 282.79,-187 282.79,-151 375.21,-151 375.21,-187"/>
<text text-anchor="middle" x="329" y="-164.8" font-family="Times,serif" font-size="14.00">TasksModule</text>
</g>
<!-- FinishTaskComponent&#45;&gt;TasksModule -->
<g id="edge1" class="edge">
<title>FinishTaskComponent&#45;&gt;TasksModule</title>
<path fill="none" stroke="black" d="M560,-122.11C560,-141.34 560,-169 560,-169 560,-169 385.19,-169 385.19,-169"/>
<polygon fill="black" stroke="black" points="385.19,-165.5 375.19,-169 385.19,-172.5 385.19,-165.5"/>
</g>
<!-- ListTaskComponent -->
<g id="node2" class="node">
<title>ListTaskComponent</title>
<polygon fill="#ffffb3" stroke="black" points="470.32,-122 339.68,-122 339.68,-86 470.32,-86 470.32,-122"/>
<text text-anchor="middle" x="405" y="-99.8" font-family="Times,serif" font-size="14.00">ListTaskComponent</text>
</g>
<!-- ListTaskComponent&#45;&gt;TasksModule -->
<g id="edge2" class="edge">
<title>ListTaskComponent&#45;&gt;TasksModule</title>
<path fill="none" stroke="black" d="M357.47,-122.11C357.47,-122.11 357.47,-140.99 357.47,-140.99"/>
<polygon fill="black" stroke="black" points="353.97,-140.99 357.47,-150.99 360.97,-140.99 353.97,-140.99"/>
</g>
<!-- SaveTaskComponent -->
<g id="node3" class="node">
<title>SaveTaskComponent</title>
<polygon fill="#ffffb3" stroke="black" points="321.76,-122 186.24,-122 186.24,-86 321.76,-86 321.76,-122"/>
<text text-anchor="middle" x="254" y="-99.8" font-family="Times,serif" font-size="14.00">SaveTaskComponent</text>
</g>
<!-- SaveTaskComponent&#45;&gt;TasksModule -->
<g id="edge3" class="edge">
<title>SaveTaskComponent&#45;&gt;TasksModule</title>
<path fill="none" stroke="black" d="M302.39,-122.11C302.39,-122.11 302.39,-140.99 302.39,-140.99"/>
<polygon fill="black" stroke="black" points="298.89,-140.99 302.39,-150.99 305.89,-140.99 298.89,-140.99"/>
</g>
<!-- TasksRoutingModule -->
<g id="node5" class="node">
<title>TasksRoutingModule</title>
<polygon fill="#8dd3c7" stroke="black" points="161.82,-122 158.82,-126 137.82,-126 134.82,-122 24.18,-122 24.18,-86 161.82,-86 161.82,-122"/>
<text text-anchor="middle" x="93" y="-99.8" font-family="Times,serif" font-size="14.00">TasksRoutingModule</text>
</g>
<!-- TasksRoutingModule&#45;&gt;TasksModule -->
<g id="edge4" class="edge">
<title>TasksRoutingModule&#45;&gt;TasksModule</title>
<path fill="none" stroke="black" d="M93,-122.11C93,-141.34 93,-169 93,-169 93,-169 272.66,-169 272.66,-169"/>
<polygon fill="black" stroke="black" points="272.66,-172.5 282.66,-169 272.66,-165.5 272.66,-172.5"/>
</g>
</g>
</svg>
