<?xml version="1.0" encoding="UTF-8" standalone="no"?>
<!DOCTYPE svg PUBLIC "-//W3C//DTD SVG 1.1//EN"
 "http://www.w3.org/Graphics/SVG/1.1/DTD/svg11.dtd">
<!-- Generated by graphviz version 2.47.0 (20210316.0004)
 -->
<!-- Title: dependencies Pages: 1 -->
<svg width="591pt" height="211pt"
 viewBox="0.00 0.00 591.00 211.00" xmlns="http://www.w3.org/2000/svg" xmlns:xlink="http://www.w3.org/1999/xlink">
<g id="graph0" class="graph" transform="scale(1 1) rotate(0) translate(4 207)">
<title>dependencies</title>
<polygon fill="white" stroke="transparent" points="-4,4 -4,-207 587,-207 587,4 -4,4"/>
<text text-anchor="start" x="270.51" y="-42.4" font-family="Times-12" font-weight="bold" font-size="14.00">Legend</text>
<polygon fill="#ffffb3" stroke="transparent" points="57.5,-10 57.5,-30 77.5,-30 77.5,-10 57.5,-10"/>
<text text-anchor="start" x="81.13" y="-15.4" font-family="Times-12" font-size="14.00"> &#160;Declarations</text>
<polygon fill="#8dd3c7" stroke="transparent" points="170.5,-10 170.5,-30 190.5,-30 190.5,-10 170.5,-10"/>
<text text-anchor="start" x="194.23" y="-15.4" font-family="Times-12" font-size="14.00"> &#160;Module</text>
<polygon fill="#80b1d3" stroke="transparent" points="256.5,-10 256.5,-30 276.5,-30 276.5,-10 256.5,-10"/>
<text text-anchor="start" x="280.28" y="-15.4" font-family="Times-12" font-size="14.00"> &#160;Bootstrap</text>
<polygon fill="#fdb462" stroke="transparent" points="353.5,-10 353.5,-30 373.5,-30 373.5,-10 353.5,-10"/>
<text text-anchor="start" x="377.17" y="-15.4" font-family="Times-12" font-size="14.00"> &#160;Providers</text>
<polygon fill="#fb8072" stroke="transparent" points="449.5,-10 449.5,-30 469.5,-30 469.5,-10 449.5,-10"/>
<text text-anchor="start" x="473.23" y="-15.4" font-family="Times-12" font-size="14.00"> &#160;Exports</text>
<g id="clust1" class="cluster">
<title>cluster_PagesModule</title>
<polygon fill="none" stroke="black" stroke-dasharray="1,5" points="8,-70 8,-195 575,-195 575,-70 8,-70"/>
</g>
<g id="clust4" class="cluster">
<title>cluster_PagesModule_imports</title>
<polygon fill="none" stroke="black" points="166,-78 166,-130 567,-130 567,-78 166,-78"/>
</g>
<g id="clust2" class="cluster">
<title>cluster_PagesModule_declarations</title>
<polygon fill="none" stroke="black" points="16,-78 16,-130 158,-130 158,-78 16,-78"/>
</g>
<!-- TutorialComponent -->
<g id="node1" class="node">
<title>TutorialComponent</title>
<polygon fill="#ffffb3" stroke="black" points="150.43,-122 23.57,-122 23.57,-86 150.43,-86 150.43,-122"/>
<text text-anchor="middle" x="87" y="-99.8" font-family="Times,serif" font-size="14.00">TutorialComponent</text>
</g>
<!-- PagesModule -->
<g id="node2" class="node">
<title>PagesModule</title>
<polygon fill="#8dd3c7" stroke="black" points="332.21,-187 329.21,-191 308.21,-191 305.21,-187 239.79,-187 239.79,-151 332.21,-151 332.21,-187"/>
<text text-anchor="middle" x="286" y="-164.8" font-family="Times,serif" font-size="14.00">PagesModule</text>
</g>
<!-- TutorialComponent&#45;&gt;PagesModule -->
<g id="edge1" class="edge">
<title>TutorialComponent&#45;&gt;PagesModule</title>
<path fill="none" stroke="black" d="M87,-122.11C87,-141.34 87,-169 87,-169 87,-169 229.85,-169 229.85,-169"/>
<polygon fill="black" stroke="black" points="229.85,-172.5 239.85,-169 229.85,-165.5 229.85,-172.5"/>
</g>
<!-- CategoriesModule -->
<g id="node3" class="node">
<title>CategoriesModule</title>
<polygon fill="#8dd3c7" stroke="black" points="558.92,-122 555.92,-126 534.92,-126 531.92,-122 439.08,-122 439.08,-86 558.92,-86 558.92,-122"/>
<text text-anchor="middle" x="499" y="-99.8" font-family="Times,serif" font-size="14.00">CategoriesModule</text>
</g>
<!-- CategoriesModule&#45;&gt;PagesModule -->
<g id="edge2" class="edge">
<title>CategoriesModule&#45;&gt;PagesModule</title>
<path fill="none" stroke="black" d="M499,-122.11C499,-141.34 499,-169 499,-169 499,-169 342.22,-169 342.22,-169"/>
<polygon fill="black" stroke="black" points="342.22,-165.5 332.22,-169 342.22,-172.5 342.22,-165.5"/>
</g>
<!-- PagesRoutingModule -->
<g id="node4" class="node">
<title>PagesRoutingModule</title>
<polygon fill="#8dd3c7" stroke="black" points="421.82,-122 418.82,-126 397.82,-126 394.82,-122 284.18,-122 284.18,-86 421.82,-86 421.82,-122"/>
<text text-anchor="middle" x="353" y="-99.8" font-family="Times,serif" font-size="14.00">PagesRoutingModule</text>
</g>
<!-- PagesRoutingModule&#45;&gt;PagesModule -->
<g id="edge3" class="edge">
<title>PagesRoutingModule&#45;&gt;PagesModule</title>
<path fill="none" stroke="black" d="M308.22,-122.11C308.22,-122.11 308.22,-140.99 308.22,-140.99"/>
<polygon fill="black" stroke="black" points="304.72,-140.99 308.22,-150.99 311.72,-140.99 304.72,-140.99"/>
</g>
<!-- TasksModule -->
<g id="node5" class="node">
<title>TasksModule</title>
<polygon fill="#8dd3c7" stroke="black" points="266.21,-122 263.21,-126 242.21,-126 239.21,-122 173.79,-122 173.79,-86 266.21,-86 266.21,-122"/>
<text text-anchor="middle" x="220" y="-99.8" font-family="Times,serif" font-size="14.00">TasksModule</text>
</g>
<!-- TasksModule&#45;&gt;PagesModule -->
<g id="edge4" class="edge">
<title>TasksModule&#45;&gt;PagesModule</title>
<path fill="none" stroke="black" d="M253,-122.11C253,-122.11 253,-140.99 253,-140.99"/>
<polygon fill="black" stroke="black" points="249.5,-140.99 253,-150.99 256.5,-140.99 249.5,-140.99"/>
</g>
</g>
</svg>
